<?xml version="1.0" encoding="UTF-8" standalone="no"?>
<!-- Generated by Microsoft Visio, SVG Export network_sgw_transit_detailed_layout.svg Page-1 -->

<svg
   width="1650"
   height="425"
   viewBox="0 0 1237.5006 318.7501"
   xml:space="preserve"
   color-interpolation-filters="sRGB"
   class="st28"
   version="1.1"
   id="svg435"
   sodipodi:docname="network_sgw_transit_detailed_layout.svg"
   inkscape:version="1.2.1 (9c6d41e410, 2022-07-14)"
   xmlns:inkscape="http://www.inkscape.org/namespaces/inkscape"
   xmlns:sodipodi="http://sodipodi.sourceforge.net/DTD/sodipodi-0.dtd"
   xmlns:xlink="http://www.w3.org/1999/xlink"
   xmlns="http://www.w3.org/2000/svg"
   xmlns:svg="http://www.w3.org/2000/svg"
   xmlns:v="http://schemas.microsoft.com/visio/2003/SVGExtensions/"><sodipodi:namedview
   id="namedview437"
   pagecolor="#ffffff"
   bordercolor="#666666"
   borderopacity="1.0"
   inkscape:showpageshadow="2"
   inkscape:pageopacity="1"
   inkscape:pagecheckerboard="0"
   inkscape:deskcolor="#d1d1d1"
   inkscape:document-units="px"
   showgrid="false"
   inkscape:zoom="1"
   inkscape:cx="879.5"
   inkscape:cy="265"
   inkscape:window-width="1920"
   inkscape:window-height="1017"
   inkscape:window-x="1072"
   inkscape:window-y="573"
   inkscape:window-maximized="1"
   inkscape:current-layer="svg435" />
	<v:documentProperties
   v:langID="1033"
   v:viewMarkup="false" />

	<style
   type="text/css"
   id="style2">
	<![CDATA[
		.st1 {fill:#f5f4f2;stroke:#9e9892;stroke-linecap:round;stroke-linejoin:round;stroke-width:1}
		.st2 {fill:#000000;font-family:Oracle Sans;font-size:0.75em;font-weight:bold}
		.st3 {font-size:1em}
		.st4 {font-size:0.888885em;font-weight:normal}
		.st5 {fill:none;stroke:#ae562c;stroke-dasharray:3,3;stroke-width:1}
		.st6 {fill:#ae562c;font-family:Oracle Sans;font-size:0.75em;font-weight:bold}
		.st7 {fill:#000000;font-size:0.888885em;font-weight:normal}
		.st8 {fill:#ffffff;stroke:none;stroke-linecap:butt;stroke-width:14.069}
		.st9 {fill:#bb501c;stroke:none;stroke-linecap:butt;stroke-width:14.069}
		.st10 {fill:none;stroke:none;stroke-width:0.25}
		.st11 {fill:#312d2a;font-family:Oracle Sans Tab;font-size:0.666664em}
		.st12 {fill:#ffffff;stroke:none;stroke-linecap:butt;stroke-width:18.8571}
		.st13 {fill:#2c5967;stroke:none;stroke-linecap:butt;stroke-width:18.8571}
		.st14 {fill:#312d2a;font-family:Oracle Sans;font-size:0.666664em}
		.st15 {fill:#ffffff;stroke:none;stroke-linecap:butt;stroke-width:14.5714}
		.st16 {fill:#2c5967;stroke:none;stroke-linecap:butt;stroke-width:14.5714}
		.st17 {marker-end:url(#mrkr3-86);marker-start:url(#mrkr3-84);stroke:#000000;stroke-linecap:round;stroke-linejoin:round;stroke-width:1}
		.st18 {fill:#000000;fill-opacity:1;stroke:#000000;stroke-opacity:1;stroke-width:0.28409090909091}
		.st19 {fill:#ffffff;stroke:none;stroke-linecap:butt;stroke-width:7.2}
		.st20 {fill:#000000;font-family:Oracle Sans;font-size:0.666664em}
		.st21 {fill:#f5f4f2;stroke:none;stroke-linecap:round;stroke-linejoin:round;stroke-width:1}
		.st22 {marker-end:url(#mrkr3-86);stroke:#000000;stroke-dasharray:3,3;stroke-linecap:round;stroke-linejoin:round;stroke-width:1}
		.st23 {fill:#ae562c;stroke:#f5f4f2;stroke-linecap:round;stroke-linejoin:round;stroke-width:1.5}
		.st24 {fill:#fcfbfa;font-family:Oracle Sans;font-size:0.669044em;font-weight:bold}
		.st25 {fill:#ffffff;stroke:none;stroke-linecap:butt;stroke-width:14.5058}
		.st26 {fill:#2c5967;stroke:none;stroke-linecap:butt;stroke-width:14.5058}
		.st27 {marker-end:url(#mrkr3-86);stroke:#000000;stroke-linecap:round;stroke-linejoin:round;stroke-width:1}
		.st28 {fill:none;fill-rule:evenodd;font-size:12px;overflow:visible;stroke-linecap:square;stroke-miterlimit:3}
	]]>
	</style>

	<defs
   id="Markers">
		<g
   id="lend3">
			<path
   d="M 2,1 0,0 2,-1"
   style="fill:none;stroke-linecap:round;stroke-linejoin:round"
   id="path4" />
		</g>
		<marker
   id="mrkr3-84"
   class="st18"
   v:arrowType="3"
   v:arrowSize="2"
   orient="auto"
   markerUnits="strokeWidth"
   overflow="visible">
			<use
   xlink:href="#lend3"
   transform="scale(3.52)"
   id="use7" />
		</marker>
		<marker
   id="mrkr3-86"
   class="st18"
   v:arrowType="3"
   v:arrowSize="2"
   orient="auto"
   markerUnits="strokeWidth"
   overflow="visible">
			<use
   xlink:href="#lend3"
   transform="scale(-3.52)"
   id="use10" />
		</marker>
























	</defs><rect
   style="fill:#fcfbfa;stroke-width:2.0196;stroke-miterlimit:3"
   id="rect1129"
   width="1237.5005"
   height="318.75012"
   x="0"
   y="0" />
	<g
   id="shape1-1"
   v:mID="1"
   v:groupContext="shape"
   v:layerMember="0"
   transform="matrix(1.9136658,0,0,1.9435115,493.49538,8.9472189)">
			<title
   id="title16">Sheet.1</title>
			<desc
   id="desc18">OCI Region</desc>
			<v:textBlock
   v:margins="rect(4,4,4,4)"
   v:verticalAlign="0" />
			<v:textRect
   cx="188.875"
   cy="77.4406"
   width="377.75"
   height="143.8" />
			<path
   d="M 0,8.12 C 0,6.74 0.65,5.54 1.41,5.54 h 374.97 c 0.75,0 1.37,1.2 1.37,2.58 v 138.7 c 0,1.38 -0.62,2.52 -1.37,2.52 H 1.41 C 0.65,149.34 0,148.2 0,146.82 Z"
   class="st1"
   id="path20" />
			<text
   x="165.03"
   y="17.639999"
   class="st2"
   v:langID="1033"
   id="text22"><v:paragraph
   v:horizAlign="1" /><v:tabList />OCI Region</text>		</g><g
   id="shape2-4"
   v:mID="2"
   v:groupContext="shape"
   v:layerMember="0"
   transform="matrix(2.0463718,0,0,1.9430559,20.682236,8.9824998)">
			<title
   id="title25">Sheet.2</title>
			<desc
   id="desc27">On-Premises Network 172.16.0.0/12</desc>
			<v:textBlock
   v:margins="rect(4,4,4,4)"
   v:verticalAlign="0" />
			<v:textRect
   cx="54.3852"
   cy="77.4406"
   width="108.78"
   height="143.8" />
			<path
   d="M 0,8.12 C 0,6.74 0.19,5.54 0.4,5.54 h 107.98 c 0.21,0 0.39,1.2 0.39,2.58 v 138.7 c 0,1.38 -0.18,2.52 -0.39,2.52 H 0.4 C 0.19,149.34 0,148.2 0,146.82 Z"
   class="st1"
   id="path29" />
			<text
   x="26.620001"
   y="17.639999"
   class="st2"
   v:langID="1033"
   id="text35"><v:paragraph
   v:horizAlign="1" /><v:tabList />On-Premises<v:newlineChar /><tspan
   x="36"
   dy="1.2em"
   class="st3"
   id="tspan31">Network<v:lf /></tspan><tspan
   x="31.26"
   dy="1.35em"
   class="st4"
   id="tspan33">172.16.0.0/12</tspan></text>		</g><g
   id="shape3-9"
   v:mID="3"
   v:groupContext="shape"
   v:layerMember="0"
   transform="matrix(1.943408,0,0,1.943408,555.17143,-25.637432)">
			<title
   id="title38">Sheet.3</title>
			<desc
   id="desc40">VCN 10.0.0.0/16</desc>
			<v:textBlock
   v:margins="rect(4,4,4,4)"
   v:verticalAlign="0" />
			<v:textRect
   cx="65.7286"
   cy="99.8406"
   width="131.46"
   height="99" />
			<path
   d="m 0,149.34 h 131.46 v -99 H 0 Z"
   class="st5"
   id="path42" />
			<text
   x="4"
   y="62.439999"
   class="st6"
   v:langID="1033"
   id="text46"><v:paragraph /><v:tabList />VCN<v:lf /><tspan
   x="4"
   dy="1.35em"
   class="st7"
   id="tspan44">10.0.0.0/16</tspan></text>		</g><g
   id="group4-13"
   transform="matrix(1.943408,0,0,1.943408,790.79216,-8.5906342)"
   v:mID="4"
   v:groupContext="group"
   v:layerMember="0">
			<title
   id="title49">VCN</title>
			<g
   id="group5-14"
   v:mID="5"
   v:groupContext="group"
   v:layerMember="0">
				<title
   id="title51">Sheet.5</title>
				<g
   id="shape6-15"
   v:mID="6"
   v:groupContext="shape"
   v:layerMember="0"
   transform="translate(0.213948,-0.213948)">
					<title
   id="title53">Sheet.6</title>
					<path
   d="m 13.14,149.34 c -1.2,0 -2.27,-0.86 -2.53,-2.05 H 7.57 c -0.25,1.15 -1.28,2.05 -2.52,2.05 -1.41,0 -2.57,-1.15 -2.57,-2.57 0,-0.9 0.52,-1.75 1.29,-2.22 l -0.95,-2.87 c -0.08,0 -0.17,0 -0.25,0 -1.41,0 -2.57,-1.15 -2.57,-2.57 0,-1.41 1.16,-2.56 2.57,-2.56 0.64,0 1.24,0.21 1.71,0.68 l 2.48,-1.8 c -0.13,-0.34 -0.21,-0.68 -0.21,-1.07 0,-1.41 1.15,-2.56 2.56,-2.56 1.42,0 2.57,1.15 2.57,2.56 0,0.35 -0.08,0.73 -0.21,1.07 l 2.44,1.8 c 0.47,-0.43 1.07,-0.68 1.71,-0.68 1.41,0 2.57,1.15 2.57,2.56 0,1.42 -1.16,2.57 -2.57,2.57 -0.09,0 -0.17,0 -0.26,0 l -0.94,2.87 c 0.77,0.47 1.28,1.32 1.28,2.22 0,1.42 -1.15,2.57 -2.56,2.57 z"
   class="st8"
   id="path55" />
				</g>
				<g
   id="shape7-17"
   v:mID="7"
   v:groupContext="shape"
   v:layerMember="0">
					<title
   id="title58">Sheet.7</title>
					<path
   d="m 9.29,131.8 c 1.28,0 2.35,1.07 2.35,2.35 0,0.39 -0.09,0.77 -0.3,1.11 l 2.74,2.01 c 0.43,-0.47 1.02,-0.72 1.71,-0.72 1.28,0 2.35,1.07 2.35,2.35 0,1.28 -1.07,2.35 -2.35,2.35 -0.13,0 -0.3,0 -0.43,-0.04 l -1.07,3.21 c 0.77,0.38 1.33,1.2 1.33,2.14 0,1.28 -1.07,2.35 -2.36,2.35 -1.19,0 -2.18,-0.9 -2.35,-2.05 H 7.53 c -0.17,1.15 -1.15,2.05 -2.35,2.05 -1.29,0 -2.36,-1.07 -2.36,-2.35 0,-0.94 0.56,-1.76 1.33,-2.14 l -0.94,-3.21 c -0.13,0.04 -0.3,0.04 -0.43,0.04 -1.28,0 -2.35,-1.07 -2.35,-2.35 0,-1.28 1.07,-2.35 2.35,-2.35 0.69,0 1.29,0.3 1.71,0.72 l 2.74,-2.01 c -0.17,-0.34 -0.3,-0.72 -0.3,-1.11 0,-1.28 1.07,-2.35 2.36,-2.35 z m 0,-0.43 c -1.55,0 -2.79,1.24 -2.79,2.78 0,0.34 0.05,0.68 0.18,0.98 l -2.19,1.59 c -0.47,-0.39 -1.11,-0.6 -1.71,-0.6 -1.54,0 -2.78,1.24 -2.78,2.78 0,1.54 1.24,2.78 2.78,2.78 0.04,0 0.09,0 0.13,0 l 0.81,2.57 c -0.77,0.51 -1.24,1.37 -1.24,2.31 0,1.54 1.24,2.78 2.78,2.78 1.24,0 2.36,-0.86 2.7,-2.05 h 2.69 c 0.35,1.19 1.42,2.05 2.7,2.05 1.54,0 2.78,-1.24 2.78,-2.78 0,-0.94 -0.47,-1.8 -1.24,-2.31 l 0.81,-2.57 c 0.05,0 0.09,0 0.13,0 1.54,0 2.78,-1.24 2.78,-2.78 0,-1.54 -1.24,-2.78 -2.78,-2.78 -0.64,0 -1.24,0.21 -1.75,0.6 l -2.18,-1.59 c 0.12,-0.3 0.17,-0.64 0.17,-0.98 0.04,-1.54 -1.24,-2.78 -2.78,-2.78 z"
   class="st8"
   id="path60" />
				</g>
			</g>
			<g
   id="shape8-19"
   v:mID="8"
   v:groupContext="shape"
   v:layerMember="0"
   transform="translate(0.470686,-0.427897)">
				<title
   id="title64">Sheet.8</title>
				<path
   d="m 15.36,136.97 c -0.68,0 -1.28,0.3 -1.71,0.73 l -2.74,-2.01 c 0.17,-0.34 0.3,-0.73 0.3,-1.11 0,-1.29 -1.07,-2.36 -2.35,-2.36 -1.29,0 -2.36,1.07 -2.36,2.36 0,0.38 0.09,0.77 0.3,1.11 l -2.73,2.01 c -0.43,-0.43 -1.03,-0.73 -1.72,-0.73 -1.28,0 -2.35,1.07 -2.35,2.36 0,1.28 1.07,2.35 2.35,2.35 0.13,0 0.3,0 0.43,-0.04 l 1.03,3.21 c -0.77,0.38 -1.33,1.2 -1.33,2.14 0,1.28 1.07,2.35 2.36,2.35 1.19,0 2.18,-0.9 2.35,-2.05 h 3.38 c 0.17,1.15 1.15,2.05 2.35,2.05 1.29,0 2.36,-1.07 2.36,-2.35 0,-0.94 -0.56,-1.76 -1.33,-2.14 l 0.98,-3.21 c 0.13,0.04 0.3,0.04 0.43,0.04 1.29,0 2.35,-1.07 2.35,-2.35 0,-1.29 -1.06,-2.36 -2.35,-2.36 z m -2.48,11.73 c -0.94,0 -1.71,-0.77 -1.71,-1.71 0,-0.94 0.77,-1.71 1.71,-1.71 0.94,0 1.71,0.77 1.71,1.71 0,0.94 -0.77,1.71 -1.71,1.71 z M 7.15,146.69 C 7.06,146.13 6.8,145.66 6.42,145.28 l 1.28,-1.8 c 0.34,0.17 0.73,0.3 1.11,0.3 0.39,0 0.77,-0.09 1.12,-0.3 l 1.28,1.8 c -0.38,0.34 -0.64,0.85 -0.73,1.41 z m -4.07,0.3 c 0,-0.94 0.77,-1.71 1.71,-1.71 0.94,0 1.71,0.77 1.71,1.71 0,0.94 -0.77,1.71 -1.71,1.71 -0.94,0 -1.71,-0.77 -1.71,-1.71 z m -0.77,-9.42 c 0.94,0 1.71,0.77 1.71,1.72 0,0.94 -0.77,1.71 -1.71,1.71 -0.94,0 -1.71,-0.77 -1.71,-1.71 0,-0.95 0.77,-1.72 1.71,-1.72 z m 4.79,-2.99 c 0,-0.94 0.77,-1.71 1.71,-1.71 0.95,0 1.72,0.77 1.72,1.71 0,0.94 -0.77,1.71 -1.72,1.71 -0.94,0 -1.71,-0.77 -1.71,-1.71 z m 5.95,5.13 -2.1,0.69 c -0.34,-0.69 -1.02,-1.2 -1.79,-1.33 v -2.14 c 0.55,-0.08 1.02,-0.34 1.37,-0.73 l 2.73,2.02 c -0.17,0.34 -0.29,0.72 -0.29,1.11 0.04,0.13 0.04,0.25 0.08,0.38 z m -2.48,1.71 c 0,0.95 -0.77,1.72 -1.71,1.72 -0.94,0 -1.71,-0.77 -1.71,-1.72 0,-0.94 0.77,-1.71 1.71,-1.71 0.94,0 1.71,0.73 1.71,1.71 z m -2.05,-4.49 v 2.14 c -0.82,0.13 -1.5,0.6 -1.8,1.33 l -2.1,-0.69 c 0.04,-0.13 0.04,-0.25 0.04,-0.42 0,-0.39 -0.08,-0.78 -0.3,-1.12 l 2.74,-2.01 c 0.39,0.43 0.86,0.69 1.42,0.77 z m -4.07,3.38 2.1,0.69 c -0.05,0.13 -0.05,0.25 -0.05,0.42 0,0.69 0.3,1.29 0.73,1.72 l -1.28,1.79 c -0.34,-0.17 -0.73,-0.3 -1.11,-0.3 -0.13,0 -0.3,0 -0.43,0.05 l -1.03,-3.21 c 0.43,-0.26 0.81,-0.64 1.07,-1.16 z m 8.43,4.32 c -0.39,0 -0.77,0.09 -1.11,0.3 l -1.29,-1.79 c 0.47,-0.43 0.73,-1.03 0.73,-1.72 0,-0.12 0,-0.29 -0.04,-0.42 l 2.09,-0.69 c 0.22,0.47 0.65,0.86 1.12,1.11 l -1.07,3.21 c -0.17,0 -0.3,0 -0.43,0 z m 0.77,-5.3 c 0,-0.94 0.77,-1.71 1.71,-1.71 0.94,0 1.71,0.77 1.71,1.71 0,0.94 -0.77,1.71 -1.71,1.71 -0.94,0 -1.71,-0.77 -1.71,-1.71 z"
   class="st9"
   id="path66" />
			</g>
		</g><g
   id="group9-21"
   transform="matrix(1.943408,0,0,1.943408,18.750007,-45.752093)"
   v:mID="9"
   v:groupContext="group"
   v:layerMember="0">
			<title
   id="title70">On-Premises Data Center</title>
			<g
   id="shape10-22"
   v:mID="10"
   v:groupContext="shape"
   v:layerMember="0">
				<title
   id="title72">Sheet.10</title>
				<desc
   id="desc74">On-premises Data Center</desc>
				<v:textBlock
   v:margins="rect(4,4,4,4)" />
				<v:textRect
   cx="29.25"
   cy="134.841"
   width="58.51"
   height="29.0001" />
				<rect
   x="0"
   y="120.341"
   width="58.5"
   height="29.000099"
   class="st10"
   id="rect76" />
				<text
   x="5.77"
   y="127.64"
   class="st11"
   v:langID="1033"
   id="text82"><v:paragraph
   v:horizAlign="1"
   v:bulletSize="0.166667" /><v:tabList />On-premises <v:newlineChar /><tspan
   x="20.84"
   dy="1.2em"
   class="st3"
   id="tspan78">Data<v:newlineChar /></tspan><tspan
   x="17.25"
   dy="1.2em"
   class="st3"
   id="tspan80">Center</tspan></text>			</g>
			<g
   id="shape11-27"
   v:mID="11"
   v:groupContext="shape"
   v:layerMember="0"
   transform="translate(19.6661,-28.5033)">
				<title
   id="title85">Sheet.11</title>
				<path
   d="m 0,147.58 a 1.7558,1.7558 -180 0 0 1.76,1.76 h 15.65 a 1.7558,1.7558 -180 0 0 1.76,-1.76 v -31.6 a 1.7558,1.7558 -180 0 0 -1.76,-1.75 H 1.76 A 1.7558,1.7558 -180 0 0 0,115.98 Z"
   class="st12"
   id="path87" />
			</g>
			<g
   id="shape12-29"
   v:mID="12"
   v:groupContext="shape"
   v:layerMember="0"
   transform="translate(19.2379,-28.0751)">
				<title
   id="title90">Sheet.12</title>
				<path
   d="m 17.84,114.23 a 1.33609,1.33609 0 0 1 1.33,1.32 v 31.61 a 1.33609,1.33609 0 0 1 -1.33,1.32 H 2.18 a 1.33609,1.33609 0 0 1 -1.32,-1.32 v -31.61 a 1.33609,1.33609 0 0 1 1.32,-1.32 z m 0,-0.86 H 2.18 A 2.18399,2.18399 -180 0 0 0,115.55 v 31.61 a 2.18399,2.18399 -180 0 0 2.18,2.18 h 15.66 a 2.18399,2.18399 -180 0 0 2.18,-2.18 v -31.61 a 2.18399,2.18399 -180 0 0 -2.18,-2.18 z"
   class="st12"
   id="path92" />
			</g>
			<g
   id="shape13-31"
   v:mID="13"
   v:groupContext="shape"
   v:layerMember="0"
   transform="translate(20.0944,-28.9315)">
				<title
   id="title95">Sheet.13</title>
				<path
   d="M 16.98,115.08 H 1.33 A 1.33609,1.33609 -180 0 0 0,116.41 v 31.6 a 1.33609,1.33609 -180 0 0 1.33,1.33 h 15.65 a 1.33609,1.33609 -180 0 0 1.33,-1.33 v -31.6 a 1.33609,1.33609 -180 0 0 -1.33,-1.33 z m 0.15,32.93 a 0.154164,0.154164 0 0 1 -0.1456,0.1456 L 1.33,148.16 A 0.154164,0.154164 0 0 1 1.1844,148.0144 L 1.18,116.41 a 0.154164,0.154164 0 0 1 0.1456,-0.1456 L 16.98,116.26 a 0.154164,0.154164 0 0 1 0.1456,0.1456 z"
   class="st13"
   id="path97" />
			</g>
			<g
   id="shape14-33"
   v:mID="14"
   v:groupContext="shape"
   v:layerMember="0"
   transform="translate(22.1584,-55.8075)">
				<title
   id="title100">Sheet.14</title>
				<path
   d="m 0,149.34 h 14.21 v -5.32 H 0 Z M 1.18,145.2 H 13 v 2.96 H 1.18 Z"
   class="st13"
   id="path102" />
			</g>
			<g
   id="shape15-35"
   v:mID="15"
   v:groupContext="shape"
   v:layerMember="0"
   transform="translate(33.087,-57.8716)">
				<title
   id="title105">Sheet.15</title>
				<circle
   cx="0.59096301"
   cy="148.75"
   class="st13"
   id="ellipse107"
   r="0.59096301" />
			</g>
			<g
   id="shape16-37"
   v:mID="16"
   v:groupContext="shape"
   v:layerMember="0"
   transform="translate(22.1584,-49.6067)">
				<title
   id="title110">Sheet.16</title>
				<path
   d="m 0,149.34 h 14.21 v -5.31 H 0 Z m 1.18,-4.16 H 13 v 2.95 H 1.18 Z"
   class="st13"
   id="path112" />
			</g>
			<g
   id="shape17-39"
   v:mID="17"
   v:groupContext="shape"
   v:layerMember="0"
   transform="translate(33.087,-51.6707)">
				<title
   id="title115">Sheet.17</title>
				<circle
   cx="0.59096301"
   cy="148.75"
   class="st13"
   id="ellipse117"
   r="0.59096301" />
			</g>
			<g
   id="shape18-41"
   v:mID="18"
   v:groupContext="shape"
   v:layerMember="0"
   transform="translate(22.1584,-43.4058)">
				<title
   id="title120">Sheet.18</title>
				<path
   d="m 0,149.34 h 14.21 v -5.31 H 0 Z m 1.18,-4.13 H 13 v 2.95 H 1.18 Z"
   class="st13"
   id="path122" />
			</g>
			<g
   id="shape19-43"
   v:mID="19"
   v:groupContext="shape"
   v:layerMember="0"
   transform="translate(33.087,-45.4699)">
				<title
   id="title125">Sheet.19</title>
				<circle
   cx="0.59096301"
   cy="148.75"
   class="st13"
   id="ellipse127"
   r="0.59096301" />
			</g>
			<g
   id="shape20-45"
   v:mID="20"
   v:groupContext="shape"
   v:layerMember="0"
   transform="translate(22.1584,-37.205)">
				<title
   id="title130">Sheet.20</title>
				<path
   d="m 0,149.34 h 14.21 v -5.31 H 0 Z m 1.18,-4.13 H 13 v 2.98 H 1.18 Z"
   class="st13"
   id="path132" />
			</g>
			<g
   id="shape21-47"
   v:mID="21"
   v:groupContext="shape"
   v:layerMember="0"
   transform="translate(33.087,-39.2691)">
				<title
   id="title135">Sheet.21</title>
				<circle
   cx="0.59096301"
   cy="148.75"
   class="st13"
   id="ellipse137"
   r="0.59096301" />
			</g>
			<g
   id="shape22-49"
   v:mID="22"
   v:groupContext="shape"
   v:layerMember="0"
   transform="translate(22.1584,-30.9956)">
				<title
   id="title140">Sheet.22</title>
				<path
   d="m 0,149.34 h 14.21 v -5.32 H 0 Z M 1.18,145.2 H 13 v 2.96 H 1.18 Z"
   class="st13"
   id="path142" />
			</g>
			<g
   id="shape23-51"
   v:mID="23"
   v:groupContext="shape"
   v:layerMember="0"
   transform="translate(33.087,-33.0683)">
				<title
   id="title145">Sheet.23</title>
				<circle
   cx="0.59096301"
   cy="148.75"
   class="st13"
   id="ellipse147"
   r="0.59096301" />
			</g>
		</g><g
   id="shape24-53"
   v:mID="24"
   v:groupContext="shape"
   v:layerMember="0"
   transform="matrix(1.943408,0,0,1.943408,935.59354,-21.209765)">
			<title
   id="title151">Sheet.24</title>
			<desc
   id="desc153">Oracle Services Network</desc>
			<v:textBlock
   v:margins="rect(4,4,4,4)"
   v:verticalAlign="0" />
			<v:textRect
   cx="65.7286"
   cy="99.8406"
   width="131.46"
   height="99" />
			<path
   d="m 0,149.34 h 131.46 v -99 H 0 Z"
   class="st5"
   id="path155" />
			<text
   x="4"
   y="62.439999"
   class="st6"
   v:langID="1033"
   id="text157"><v:paragraph /><v:tabList />Oracle Services Network  </text>		</g><g
   id="group25-56"
   transform="matrix(1.943408,0,0,1.943408,997.5319,-53.438466)"
   v:mID="25"
   v:groupContext="group"
   v:layerMember="0">
			<title
   id="title160">Object Storage.101</title>
			<g
   id="shape26-57"
   v:mID="26"
   v:groupContext="shape"
   v:layerMember="0">
				<title
   id="title162">Sheet.26</title>
				<desc
   id="desc164">Object Storage</desc>
				<v:textBlock
   v:margins="rect(4,4,4,4)" />
				<v:textRect
   cx="33.8582"
   cy="142.879"
   width="67.72"
   height="12.9231" />
				<rect
   x="0"
   y="136.418"
   width="67.716301"
   height="12.9231"
   class="st10"
   id="rect166" />
				<text
   x="7.1700001"
   y="145.28"
   class="st14"
   v:langID="1033"
   id="text168"><v:paragraph
   v:horizAlign="1"
   v:bulletSize="0.166667" /><v:tabList />Object Storage</text>			</g>
			<g
   id="group27-60"
   transform="translate(15.8582,-12.8947)"
   v:mID="27"
   v:groupContext="group"
   v:layerMember="0">
				<title
   id="title171">Object Storage</title>
				<g
   id="group28-61"
   v:mID="28"
   v:groupContext="group"
   v:layerMember="0">
					<title
   id="title173">Sheet.28</title>
					<g
   id="group29-62"
   v:mID="29"
   v:groupContext="group"
   v:layerMember="0">
						<title
   id="title175">Sheet.29</title>
						<g
   id="shape30-63"
   v:mID="30"
   v:groupContext="shape"
   v:layerMember="0"
   transform="translate(0.428571,-0.42)">
							<title
   id="title177">Sheet.30</title>
							<path
   d="M 1.86,149.33 C 0.84,149.33 0,148.5 0,147.47 v -31.42 c 0,-1.03 0.83,-1.86 1.86,-1.86 h 31.43 c 1.02,0 1.86,0.83 1.86,1.86 v 31.43 c 0,1.03 -0.83,1.86 -1.86,1.86 H 1.86 Z"
   class="st15"
   id="path179" />
						</g>
						<g
   id="shape31-65"
   v:mID="31"
   v:groupContext="shape"
   v:layerMember="0">
							<title
   id="title182">Sheet.31</title>
							<path
   d="m 33.71,114.2 c 0.79,0 1.43,0.64 1.43,1.43 v 31.43 c 0,0.79 -0.64,1.43 -1.43,1.43 H 2.29 C 1.5,148.48 0.86,147.84 0.86,147.05 v -31.42 c 0,-0.79 0.64,-1.43 1.43,-1.43 z m 0,-0.86 H 2.29 c -1.26,0 -2.29,1.03 -2.29,2.29 v 31.43 c 0,1.25 1.03,2.28 2.29,2.28 h 31.43 c 1.25,0 2.28,-1.03 2.28,-2.29 v -31.42 c 0,-1.26 -1.03,-2.29 -2.29,-2.29 z"
   class="st15"
   id="path184" />
						</g>
					</g>
					<g
   id="group32-67"
   transform="translate(5.79429,-4.45714)"
   v:mID="32"
   v:groupContext="group"
   v:layerMember="0">
						<title
   id="title188">Sheet.32</title>
						<g
   id="shape33-68"
   v:mID="33"
   v:groupContext="shape"
   v:layerMember="0"
   transform="translate(11.82,-12.1971)">
							<title
   id="title190">Sheet.33</title>
							<path
   d="m 8.48,139.98 2.32,4.05 -2.35,4.04 H 3.78 l -2.32,-4.04 2.35,-4.05 z m 0.73,-1.27 H 3.08 L 0,144.03 3.06,149.34 H 9.2 l 3.07,-5.31 z"
   class="st16"
   id="path192" />
						</g>
						<g
   id="shape34-70"
   v:mID="34"
   v:groupContext="shape"
   v:layerMember="0"
   transform="translate(6.67714)">
							<title
   id="title195">Sheet.34</title>
							<path
   d="m 5.29,140.03 c 2.22,0 4.02,1.8 4.02,4.02 0,2.22 -1.8,4.02 -4.02,4.02 -2.22,0 -4.02,-1.8 -4.02,-4.02 0.01,-2.21 1.81,-4.02 4.02,-4.02 z m 0,-1.27 c -2.93,0 -5.29,2.37 -5.29,5.29 0,2.93 2.39,5.29 5.29,5.29 2.9,0 5.29,-2.37 5.29,-5.29 0.01,-2.92 -2.36,-5.29 -5.29,-5.29 z"
   class="st16"
   id="path197" />
						</g>
						<g
   id="shape35-72"
   v:mID="35"
   v:groupContext="shape"
   v:layerMember="0"
   transform="translate(0,-12.48)">
							<title
   id="title200">Sheet.35</title>
							<path
   d="m 5.86,141.27 3.76,6.8 H 2.14 Z M 5.85,138.63 0,149.34 h 11.76 z"
   class="st16"
   id="path202" />
						</g>
					</g>
					<g
   id="shape36-74"
   v:mID="36"
   v:groupContext="shape"
   v:layerMember="0"
   transform="translate(0.857143,-0.857143)">
						<title
   id="title206">Sheet.36</title>
						<path
   d="M 32.85,149.34 H 1.43 C 0.64,149.34 0,148.7 0,147.91 v -29.44 h 34.29 v 29.45 c 0,0.78 -0.65,1.42 -1.44,1.42 z M 1.27,119.74 v 28.18 c 0,0.08 0.07,0.16 0.16,0.16 h 31.43 c 0.09,0 0.17,-0.07 0.17,-0.16 v -28.18 z"
   class="st16"
   id="path208" />
					</g>
					<g
   id="shape37-76"
   v:mID="37"
   v:groupContext="shape"
   v:layerMember="0"
   transform="translate(0.857143,-32.6829)">
						<title
   id="title211">Sheet.37</title>
						<path
   d="M 34.29,149.34 H 0 v -1.03 c 0,-0.79 0.64,-1.43 1.43,-1.43 h 31.43 c 0.78,0 1.43,0.64 1.43,1.43 z"
   class="st16"
   id="path213" />
					</g>
				</g>
			</g>
		</g><g
   id="shape38-78"
   v:mID="38"
   v:groupContext="shape"
   v:layerMember="1"
   transform="matrix(1.943408,0,0,1.943408,219.89273,-152.73029)">
			<title
   id="title219">Sheet.38</title>
			<desc
   id="desc221">Site-to-Site VPN or Fastconnect</desc>
			<v:textBlock
   v:margins="rect(4,4,4,4)" />
			<v:textRect
   cx="76.5"
   cy="158.341"
   width="124.37"
   height="17.6036" />
			<path
   d="M 0,158.34 H 153"
   class="st17"
   id="path223" />
			<rect
   v:rectContext="textBkgnd"
   x="19.2999"
   y="153.541"
   width="114.4"
   height="9.5998497"
   class="st19"
   id="rect225" />
			<text
   x="19.299999"
   y="160.74001"
   class="st20"
   v:langID="1033"
   id="text227"><v:paragraph
   v:horizAlign="1" /><v:tabList />Site-to-Site VPN or FastConnect</text>		</g><g
   id="group39-89"
   transform="matrix(1.943408,0,0,1.943408,132.43937,-44.230016)"
   v:mID="39"
   v:groupContext="group"
   v:layerMember="0">
			<title
   id="title230">Customer Premises Equipment   (CPE)</title>
			<g
   id="group40-90"
   transform="translate(8.79999,-28.8299)"
   v:mID="40"
   v:groupContext="group"
   v:layerMember="0">
				<title
   id="title232">Customer Premises Equipment</title>
				<g
   id="shape41-91"
   v:mID="41"
   v:groupContext="shape"
   v:layerMember="0"
   transform="translate(0.428572,-0.428572)">
					<title
   id="title234">Sheet.41</title>
					<path
   d="m 0,147.48 a 1.86004,1.86004 -180 0 0 1.86,1.86 h 31.42 a 1.86004,1.86004 -180 0 0 1.86,-1.86 V 116.06 A 1.86004,1.86004 -180 0 0 33.28,114.2 H 1.86 A 1.86004,1.86004 -180 0 0 0,116.06 Z"
   class="st15"
   id="path236" />
				</g>
				<g
   id="shape42-93"
   v:mID="42"
   v:groupContext="shape"
   v:layerMember="0">
					<title
   id="title239">Sheet.42</title>
					<path
   d="m 33.71,114.2 a 1.43143,1.43143 0 0 1 1.43,1.43 v 31.42 a 1.43143,1.43143 0 0 1 -1.43,1.43 H 2.29 a 1.43143,1.43143 0 0 1 -1.43,-1.43 v -31.42 a 1.43143,1.43143 0 0 1 1.43,-1.43 z m 0,-0.86 H 2.29 A 2.29714,2.29714 -180 0 0 0,115.63 v 31.42 a 2.29714,2.29714 -180 0 0 2.29,2.29 H 33.71 A 2.29714,2.29714 -180 0 0 36,147.05 v -31.42 a 2.29714,2.29714 -180 0 0 -2.29,-2.29 z"
   class="st15"
   id="path241" />
				</g>
				<g
   id="shape43-95"
   v:mID="43"
   v:groupContext="shape"
   v:layerMember="0"
   transform="translate(0.857143,-0.857143)">
					<title
   id="title244">Sheet.43</title>
					<path
   d="M 32.85,115.05 H 1.43 A 1.43143,1.43143 -180 0 0 0,116.49 v 31.42 a 1.43143,1.43143 -180 0 0 1.43,1.43 h 31.42 a 1.43143,1.43143 -180 0 0 1.44,-1.43 v -31.42 a 1.43143,1.43143 -180 0 0 -1.44,-1.44 z m 0.17,32.86 a 0.171429,0.171429 0 0 1 -0.162857,0.16286 L 1.43,148.07 A 0.171429,0.171429 0 0 1 1.267143,147.90714 L 1.27,116.49 a 0.171429,0.171429 0 0 1 0.162857,-0.16286 L 32.85,116.32 a 0.171429,0.171429 0 0 1 0.162857,0.16286 z"
   class="st16"
   id="path246" />
				</g>
				<g
   id="shape44-97"
   v:mID="44"
   v:groupContext="shape"
   v:layerMember="0"
   transform="translate(7.44795,-4.34572)">
					<title
   id="title249">Sheet.44</title>
					<path
   d="m 10.55,120.76 a 14.9229,14.9229 -180 1 0 14.92,14.93 14.94,14.94 -180 0 0 -14.92,-14.93 z m 0,28.58 a 13.6543,13.6543 0 1 1 13.66,-13.65 13.7143,13.7143 0 0 1 -13.66,13.65 z"
   class="st16"
   id="path251" />
				</g>
				<g
   id="shape45-99"
   v:mID="45"
   v:groupContext="shape"
   v:layerMember="0"
   transform="translate(14.5371,-6.94286)">
					<title
   id="title254">Sheet.45</title>
					<path
   d="m 4.1,146.91 v -17.1 l 1.93,1.94 0.9,-0.9 -3.47,-3.46 -3.46,3.46 0.89,0.9 1.94,-1.94 v 17.1 l -1.94,-1.93 -0.89,0.9 3.46,3.46 3.47,-3.46 -0.9,-0.9 z"
   class="st16"
   id="path256" />
				</g>
				<g
   id="shape46-101"
   v:mID="46"
   v:groupContext="shape"
   v:layerMember="0"
   transform="translate(18.6857,-14.5371)">
					<title
   id="title259">Sheet.46</title>
					<path
   d="m 4.36,143.31 -0.89,-0.9 -3.47,3.47 3.47,3.46 0.89,-0.89 -1.93,-1.94 h 7.83 v -1.27 H 2.43 Z"
   class="st16"
   id="path261" />
				</g>
				<g
   id="shape47-103"
   v:mID="47"
   v:groupContext="shape"
   v:layerMember="0"
   transform="translate(7.04572,-14.5371)">
					<title
   id="title264">Sheet.47</title>
					<path
   d="m 6.8,142.41 -0.89,0.9 1.92,1.93 H 0 v 1.27 h 7.83 l -1.92,1.94 0.89,0.89 3.47,-3.46 z"
   class="st16"
   id="path266" />
				</g>
			</g>
			<g
   id="shape48-105"
   v:mID="48"
   v:groupContext="shape"
   v:layerMember="0">
				<title
   id="title270">Sheet.48</title>
				<desc
   id="desc272">Customer Premises Equipment</desc>
				<v:textBlock
   v:margins="rect(4,4,4,4)" />
				<v:textRect
   cx="26.8"
   cy="134.841"
   width="53.6"
   height="29" />
				<rect
   x="0"
   y="120.341"
   width="53.599998"
   height="29"
   class="st10"
   id="rect274" />
				<text
   x="9.1599998"
   y="127.64"
   class="st11"
   v:langID="1033"
   id="text280"><v:paragraph
   v:horizAlign="1"
   v:bulletSize="0.166667" /><v:tabList />Customer<v:newlineChar /><tspan
   x="10.31"
   dy="1.2em"
   class="st3"
   id="tspan276">Premises<v:newlineChar /></tspan><tspan
   x="6.9099998"
   dy="1.2em"
   class="st3"
   id="tspan278">Equipment </tspan> </text>			</g>
		</g><g
   id="shape49-110"
   v:mID="49"
   v:groupContext="shape"
   v:layerMember="0"
   transform="matrix(1.943408,0,0,1.943408,508.48882,-43.128298)">
			<title
   id="title284">Sheet.49</title>
			<path
   d="m 0,113.99 c 0,-0.35 0.12,-0.65 0.25,-0.65 h 67.22 c 0.14,0 0.25,0.3 0.25,0.65 v 34.72 c 0,0.35 -0.11,0.63 -0.25,0.63 H 0.25 C 0.12,149.34 0,149.06 0,148.71 Z"
   class="st21"
   id="path286" />
		</g><g
   id="group50-112"
   transform="matrix(1.943408,0,0,1.943408,504.11616,-43.128298)"
   v:mID="50"
   v:groupContext="group"
   v:layerMember="0">
			<title
   id="title289">Dynamic Routing Gateway (DRG)</title>
			<g
   id="group51-113"
   transform="translate(8.40315,-28.6031)"
   v:mID="51"
   v:groupContext="group"
   v:layerMember="0">
				<title
   id="title291">Direct Routing Gateway DRG</title>
				<g
   id="shape52-114"
   v:mID="52"
   v:groupContext="shape"
   v:layerMember="0">
					<title
   id="title293">Sheet.52</title>
					<circle
   cx="18.1752"
   cy="131.16499"
   class="st15"
   id="ellipse295"
   r="18.1752" />
				</g>
				<g
   id="shape53-116"
   v:mID="53"
   v:groupContext="shape"
   v:layerMember="0"
   transform="translate(0.443298,-5.00993)">
					<title
   id="title298">Sheet.53</title>
					<path
   d="M 17.73,118.44 A 17.7319,17.7319 0 1 1 0,136.18 17.7319,17.7319 0 0 1 17.73,118.44 Z m 0,-0.88 a 18.6185,18.6185 -180 1 0 18.62,18.62 18.6185,18.6185 -180 0 0 -18.62,-18.62 z"
   class="st15"
   id="path300" />
				</g>
				<g
   id="shape54-118"
   v:mID="54"
   v:groupContext="shape"
   v:layerMember="0"
   transform="translate(5.63685,-1.92391)">
					<title
   id="title303">Sheet.54</title>
					<path
   d="m 12.54,115.36 a 17.7319,17.7319 -180 1 0 17.73,17.73 17.7319,17.7319 -180 0 0 -17.73,-17.73 z m 0,33.98 a 16.2513,16.2513 0 1 1 16.25,-16.25 16.269,16.269 0 0 1 -16.25,16.25 z"
   class="st16"
   id="path305" />
				</g>
				<g
   id="shape55-120"
   v:mID="55"
   v:groupContext="shape"
   v:layerMember="0"
   transform="translate(14.1412,-4.93834)">
					<title
   id="title308">Sheet.55</title>
					<path
   d="m 4.77,146.51 v -20.63 l 2.25,2.25 1.05,-1.04 -4.04,-4.04 -4.03,4.04 1.05,1.04 2.25,-2.25 v 20.63 l -2.25,-2.25 -1.05,1.05 4.03,4.03 4.04,-4.03 -1.05,-1.05 z"
   class="st16"
   id="path310" />
				</g>
				<g
   id="shape56-122"
   v:mID="56"
   v:groupContext="shape"
   v:layerMember="0"
   transform="translate(5.06246,-14.1412)">
					<title
   id="title313">Sheet.56</title>
					<path
   d="m 8.28,141.27 -1.05,1.05 2.26,2.25 H 0 v 1.47 h 9.49 l -2.26,2.25 1.05,1.05 4.03,-4.03 z"
   class="st16"
   id="path315" />
				</g>
				<g
   id="shape57-124"
   v:mID="57"
   v:groupContext="shape"
   v:layerMember="0"
   transform="translate(18.982,-14.1412)">
					<title
   id="title318">Sheet.57</title>
					<path
   d="m 2.82,144.57 2.25,-2.25 -1.04,-1.05 -4.03,4.04 4.03,4.03 1.04,-1.05 -2.25,-2.25 h 9.49 v -1.47 z"
   class="st16"
   id="path320" />
				</g>
			</g>
			<g
   id="shape58-126"
   v:mID="58"
   v:groupContext="shape"
   v:layerMember="0">
				<title
   id="title324">Sheet.58</title>
				<desc
   id="desc326">Dynamic Routing Gateway</desc>
				<v:textBlock
   v:margins="rect(4,4,4,4)" />
				<v:textRect
   cx="26.8"
   cy="134.841"
   width="53.6"
   height="29" />
				<rect
   x="0"
   y="120.341"
   width="53.599998"
   height="29"
   class="st10"
   id="rect328" />
				<text
   x="10.88"
   y="127.64"
   class="st11"
   v:langID="1033"
   id="text334"><v:paragraph
   v:horizAlign="1"
   v:bulletSize="0.166667" /><v:tabList />Dynamic<v:newlineChar /><tspan
   x="12.55"
   dy="1.2em"
   class="st3"
   id="tspan330">Routing<v:newlineChar /></tspan><tspan
   x="11.28"
   dy="1.2em"
   class="st3"
   id="tspan332">Gateway</tspan></text>			</g>
		</g><g
   id="shape59-131"
   v:mID="59"
   v:groupContext="shape"
   v:layerMember="0"
   transform="matrix(1.943408,0,0,1.943408,779.35131,-60.673774)">
			<title
   id="title338">Sheet.59</title>
			<path
   d="m 0,131.69 c 0,-0.17 0.07,-0.32 0.15,-0.32 h 40.42 c 0.08,0 0.15,0.15 0.15,0.32 v 17.34 c 0,0.17 -0.07,0.31 -0.15,0.31 H 0.15 C 0.07,149.34 0,149.2 0,149.03 Z"
   class="st21"
   id="path340" />
		</g><g
   id="shape135-133"
   v:mID="135"
   v:groupContext="shape"
   v:layerMember="1"
   transform="matrix(1.943408,0,0,1.943408,222.96915,-95.988801)">
			<title
   id="title343">Sheet.135</title>
			<path
   d="M 0,140.34 H 151.17"
   class="st22"
   id="path345" />
		</g><g
   id="shape136-138"
   v:mID="136"
   v:groupContext="shape"
   v:layerMember="1"
   transform="matrix(1.943408,0,0,1.943408,591.56951,-95.988801)">
			<title
   id="title348">Sheet.136</title>
			<path
   d="M 0,140.34 H 95.6"
   class="st22"
   id="path350" />
		</g><g
   id="shape137-143"
   v:mID="137"
   v:groupContext="shape"
   v:layerMember="1"
   transform="matrix(1.943408,0,0,1.943408,849.07107,-95.988801)">
			<title
   id="title353">Sheet.137</title>
			<path
   d="M 0,140.34 H 42.75"
   class="st22"
   id="path355" />
		</g><g
   id="shape178-148"
   v:mID="178"
   v:groupContext="shape"
   transform="matrix(1.943408,0,0,1.943408,595.45633,-130.97015)">
			<title
   id="title358">Sheet.178</title>
			<desc
   id="desc360">1</desc>
			<v:textBlock
   v:margins="rect(4,4,4,4)" />
			<v:textRect
   cx="7.20333"
   cy="142.151"
   width="14.41"
   height="14.3794" />
			<path
   d="m 0,142.15 c 0,-3.97 3.23,-7.19 7.2,-7.19 3.99,0 7.21,3.22 7.21,7.19 0,3.98 -3.22,7.19 -7.21,7.19 -3.97,0 -7.2,-3.21 -7.2,-7.19 z"
   class="st23"
   id="path362" />
			<text
   x="5.5500002"
   y="145.75"
   class="st24"
   v:langID="1033"
   id="text364"><v:paragraph
   v:horizAlign="1" /><v:tabList />1</text>		</g><g
   id="shape179-151"
   v:mID="179"
   v:groupContext="shape"
   transform="matrix(1.943408,0,0,1.943408,743.88412,-130.97015)">
			<title
   id="title367">Sheet.179</title>
			<desc
   id="desc369">2</desc>
			<v:textBlock
   v:margins="rect(4,4,4,4)" />
			<v:textRect
   cx="7.20333"
   cy="142.151"
   width="14.41"
   height="14.3794" />
			<path
   d="m 0,142.15 c 0,-3.97 3.23,-7.19 7.2,-7.19 3.99,0 7.21,3.22 7.21,7.19 0,3.98 -3.22,7.19 -7.21,7.19 -3.97,0 -7.2,-3.21 -7.2,-7.19 z"
   class="st23"
   id="path371" />
			<text
   x="5.0900002"
   y="145.75"
   class="st24"
   v:langID="1033"
   id="text373"><v:paragraph
   v:horizAlign="1" /><v:tabList />2</text>		</g><g
   id="group60-154"
   transform="matrix(1.943408,0,0,1.943408,753.1153,-58.573922)"
   v:mID="60"
   v:groupContext="group"
   v:layerMember="0">
			<title
   id="title376">Service Gateway</title>
			<g
   id="group61-155"
   transform="translate(10.1938,-19.0963)"
   v:mID="61"
   v:groupContext="group"
   v:layerMember="0">
				<title
   id="title378">Service Gateway</title>
				<g
   id="shape62-156"
   v:mID="62"
   v:groupContext="shape"
   v:layerMember="0"
   transform="translate(0.462081)">
					<title
   id="title380">Sheet.62</title>
					<path
   d="M 21.02,149.34 A 16.9122,16.9122 0 0 1 7.46,142.58 17.4944,17.4944 0 0 1 4.9,140.44 9.01059,9.01059 0 0 1 3.84,139.29 C 3.7,139.1 3.06,138.25 2.92,137.98 2.78,137.71 2.74,137.71 2.66,137.56 l -0.25,-0.41 c -0.11,-0.19 -0.23,-0.38 -0.33,-0.57 -0.1,-0.2 -0.16,-0.31 -0.23,-0.46 l -0.21,-0.46 c -0.1,-0.18 -0.19,-0.37 -0.27,-0.56 -0.09,-0.19 -0.14,-0.35 -0.21,-0.54 l -0.2,-0.47 c -0.07,-0.17 -0.14,-0.36 -0.2,-0.55 -0.07,-0.2 -0.11,-0.43 -0.17,-0.64 l -0.13,-0.5 c 0,-0.16 -0.08,-0.32 -0.12,-0.49 -0.04,-0.17 -0.1,-0.59 -0.14,-0.92 l -0.05,-0.42 c 0,-0.13 -0.05,-0.25 -0.07,-0.38 C 0.03,129.66 0,129.07 0,128.49 a 17.06,17.06 0 0 1 17.04,-17.04 c 0.55,0 1.12,0 1.69,0.08 l 0.34,0.05 h 0.21 c 0.36,0 0.73,0.09 1.09,0.17 l 0.42,0.16 0.19,0.05 c 0.34,0.08 0.65,0.16 0.92,0.25 l 0.48,0.15 0.19,0.07 0.85,0.31 c 0.19,0.08 0.38,0.17 0.56,0.25 h 0.1 l 0.79,0.38 0.63,0.35 c 0.26,0.15 0.51,0.3 0.75,0.46 l 0.61,0.41 0.67,0.51 a 7.3933,7.3933 0 0 1 0.84,0.72 17.134,17.134 0 0 1 2.19,2.37 17.0416,17.0416 0 0 1 -9.54,31.15 z"
   class="st25"
   id="path382" />
				</g>
				<g
   id="shape63-158"
   v:mID="63"
   v:groupContext="shape"
   v:layerMember="0"
   transform="translate(0,-5.13861)">
					<title
   id="title385">Sheet.63</title>
					<path
   d="m 17.5,117.05 a 16.2006,16.2006 0 0 1 1.65,0.08 l 0.53,0.08 c 0.36,0.04 0.71,0.09 1.06,0.16 0.21,0 0.41,0.11 0.63,0.15 l 0.92,0.23 0.63,0.22 c 0.29,0.11 0.56,0.2 0.84,0.31 l 0.64,0.29 0.76,0.37 c 0.22,0.11 0.42,0.23 0.62,0.35 0.21,0.12 0.49,0.28 0.72,0.43 0.24,0.15 0.4,0.27 0.6,0.41 0.19,0.14 0.44,0.32 0.66,0.5 l 0.8,0.67 a 16.7643,16.7643 0 0 1 2.19,2.39 16.5702,16.5702 0 1 1 -22.51,23.69 16.561,16.561 0 0 1 -2.55,-2.12 c 0,0 -0.83,-0.93 -1.01,-1.13 C 4.49,143.93 3.9,143.1 3.75,142.85 3.6,142.6 3.5,142.45 3.38,142.24 3.26,142.04 3.07,141.74 2.93,141.49 2.79,141.25 2.71,141.04 2.61,140.82 2.5,140.6 2.35,140.31 2.24,140.04 2.13,139.78 2.05,139.54 1.96,139.3 1.87,139.05 1.77,138.8 1.68,138.54 1.6,138.28 1.53,137.96 1.46,137.67 1.39,137.38 1.33,137.2 1.28,136.96 1.22,136.72 1.16,136.25 1.12,135.9 c 0,-0.19 -0.08,-0.38 -0.09,-0.58 -0.07,-0.55 -0.11,-1.12 -0.11,-1.69 A 16.6349,16.6349 0 0 1 17.5,117.05 Z m 0,-0.92 a 17.5591,17.5591 -180 0 0 -17.5,17.5 16.4686,16.4686 -180 0 0 0.09,1.78 c 0,0.14 0,0.28 0.06,0.41 0.05,0.13 0,0.14 0,0.21 v 0.2 c 0,0.29 0.07,0.6 0.14,0.92 0.06,0.32 0.08,0.34 0.13,0.52 0.04,0.17 0,0.16 0.06,0.23 l 0.06,0.24 c 0.05,0.23 0.11,0.45 0.18,0.67 0.07,0.23 0.13,0.39 0.2,0.59 l 0.09,0.22 0.08,0.23 a 5.88692,5.88692 -180 0 0 0.21,0.56 c 0.09,0.21 0.19,0.41 0.28,0.6 l 0.11,0.22 0.1,0.22 a 4.80565,4.80565 -180 0 0 0.24,0.49 c 0.11,0.2 0.23,0.4 0.35,0.6 l 0.12,0.19 0.12,0.2 c 0.1,0.15 0.18,0.3 0.28,0.45 0.1,0.15 0.83,1.15 1,1.34 A 10.1658,10.1658 -180 0 0 5,145.94 17.1525,17.1525 -180 0 0 7.53,148.07 17.4944,17.4944 -180 1 0 31.42,123 17.5036,17.5036 -180 0 0 29.2,120.61 8.76106,8.76106 -180 0 0 28.37,119.9 l -0.7,-0.53 -0.63,-0.42 c -0.24,-0.16 -0.5,-0.31 -0.75,-0.46 -0.25,-0.15 -0.43,-0.26 -0.65,-0.37 l -0.82,-0.39 -0.11,-0.05 -0.56,-0.25 c -0.29,-0.12 -0.58,-0.22 -0.87,-0.32 l -0.23,-0.06 -0.5,-0.17 c -0.31,-0.1 -0.61,-0.17 -0.92,-0.25 h -0.07 l -0.18,-0.06 -0.46,-0.1 c -0.38,-0.08 -0.75,-0.13 -1.12,-0.18 h -0.18 l -0.39,-0.08 c -0.58,-0.08 -1.16,-0.08 -1.73,-0.08 z"
   class="st25"
   id="path387" />
				</g>
				<g
   id="shape64-160"
   v:mID="64"
   v:groupContext="shape"
   v:layerMember="0"
   transform="translate(2.31041,-9.2139)">
					<title
   id="title390">Sheet.64</title>
					<path
   d="M 1.92,145.1 A 15.0361,15.0361 0 0 1 0,137.71 15.2025,15.2025 0 0 1 22,124.12 17.2818,17.2818 0 0 1 26.34,125.4 16.5826,16.5826 -180 1 0 3.39,149.34 17.0785,17.0785 0 0 1 1.92,145.1 Z"
   class="st26"
   id="path392" />
				</g>
				<g
   id="shape65-162"
   v:mID="65"
   v:groupContext="shape"
   v:layerMember="0"
   transform="translate(9.79382,-1.84833)">
					<title
   id="title395">Sheet.65</title>
					<path
   d="m 11.68,117.56 a 16.5887,16.5887 -180 1 0 16.64,16.63 16.6349,16.6349 -180 0 0 -16.64,-16.63 z m 0,31.78 a 15.2025,15.2025 0 1 1 15.21,-15.19 15.2117,15.2117 0 0 1 -15.21,15.19 z"
   class="st26"
   id="path397" />
				</g>
				<g
   id="shape66-164"
   v:mID="66"
   v:groupContext="shape"
   v:layerMember="0"
   transform="translate(17.707,-4.66702)">
					<title
   id="title400">Sheet.66</title>
					<path
   d="m 7.54,145.57 -0.97,-0.98 -2.11,2.11 v -19.3 l 2.11,2.11 0.97,-0.98 -3.77,-3.77 -3.77,3.77 0.98,0.98 2.11,-2.11 v 19.3 l -2.11,-2.11 -0.98,0.98 3.77,3.77 z"
   class="st26"
   id="path402" />
				</g>
				<g
   id="shape67-166"
   v:mID="67"
   v:groupContext="shape"
   v:layerMember="0"
   transform="translate(9.2139,-13.271)">
					<title
   id="title405">Sheet.67</title>
					<path
   d="m 7.74,149.34 3.78,-3.77 -3.78,-3.77 -0.98,0.97 2.11,2.11 H 0 v 1.37 h 8.87 l -2.11,2.11 z"
   class="st26"
   id="path407" />
				</g>
				<g
   id="shape68-168"
   v:mID="68"
   v:groupContext="shape"
   v:layerMember="0"
   transform="translate(22.2261,-13.271)">
					<title
   id="title410">Sheet.68</title>
					<path
   d="M 11.52,144.88 H 2.65 l 2.1,-2.11 -0.97,-0.97 -3.78,3.77 3.78,3.77 0.97,-0.98 -2.1,-2.11 h 8.87 z"
   class="st26"
   id="path412" />
				</g>
			</g>
			<g
   id="shape69-170"
   v:mID="69"
   v:groupContext="shape"
   v:layerMember="0">
				<title
   id="title416">Sheet.69</title>
				<desc
   id="desc418">Service Gateway</desc>
				<v:textBlock
   v:margins="rect(4,4,4,4)" />
				<v:textRect
   cx="29.25"
   cy="139.341"
   width="58.5"
   height="20" />
				<rect
   x="0"
   y="129.341"
   width="58.5"
   height="20"
   class="st10"
   id="rect420" />
				<text
   x="16.26"
   y="136.94"
   class="st11"
   v:langID="1033"
   id="text424"><v:paragraph
   v:horizAlign="1"
   v:bulletSize="0.166667" /><v:tabList />Service <tspan
   x="13.73"
   dy="1.2em"
   class="st3"
   id="tspan422">Gateway</tspan></text>			</g>
		</g><g
   id="shape180-174"
   v:mID="180"
   v:groupContext="shape"
   v:layerMember="1"
   transform="matrix(1.943408,0,0,1.943408,849.07107,-113.47947)">
			<title
   id="title428">Sheet.180</title>
			<path
   d="M 0,140.34 H 42.75"
   class="st27"
   id="path430" />
		</g>
</svg>
